<svg xmlns="http://www.w3.org/2000/svg" width="70.555557mm" height="65.821411mm" viewBox="0 0 70.555557 65.821411"><path d="M0 62.10306v-3.71834h17.917549c14.936525 0 18.261955-.0897 19.987615-.53918 8.26322-2.1523 14.27893-9.82041 14.30073-18.22887.0222-8.56158-6.20396-16.48246-14.49151-18.43597-10.023735-2.36277-20.150271 3.75947-22.710585 13.73022-.90918 3.54066-.458928 10.80158.667207 10.75963.209212-.008 1.253509-.39102 2.320661-.85162 1.067154-.4606 1.986888-.79126 2.043858-.7348.142.14073-4.148526 10.87969-4.486852 11.23036-.29198.30263-11.315339-3.94435-11.315339-4.35947 0-.13721.875831-.60494 1.946288-1.0394 1.070459-.43448 2.021107-.91101 2.112552-1.05897.09145-.14796-.149383-1.50319-.535175-3.01163-1.226373-4.79507-.968097-9.41965.885701-15.85891.159599-.55438-.141161-.92119-1.403641-1.71193C1.91838 24.94164-.209433 17.61555 2.418104 11.67557c.996432-2.2526 3.886023-5.18704 6.307624-6.40551 1.835333-.92348 2.378557-1.02409 5.561772-1.03009 1.94028-.004 3.850944.11232 4.245922.25772.622017.22897.876517-.0543 1.901362-2.11667L21.618001 0l1.851287 5.46805c1.018206 3.00743 1.959107 5.72917 2.090891 6.04831.20049.48553-.671203.8827-5.340149 2.43315-3.068863 1.0191-5.779373 1.92636-6.023356 2.01615-.256704.0945-.0028-.81922.602607-2.16858l1.04621-2.33181h-1.453555c-.908603 0-2.010074.32615-2.937952.86992-3.629352 2.12694-3.563918 7.67477.115869 9.82388l1.160511.67777 2.200076-2.11262c5.135446-4.93131 11.390405-7.48706 18.337424-7.49258 4.11594-.003 7.49892.78511 11.35852 2.64705 5.7215 2.76016 9.56763 6.60363 12.35204 12.34353 6.93014 14.28604-.21083 31.02838-15.52704 36.40393l-2.82222.99051-19.314581.10238L0 65.82141zm47.590574 2.62669c2.26379-1.24783 5.03426-3.34585 6.71821-5.08759l1.21573-1.25744h15.03104V65.79305l-12.43542-.006-12.43541-.006 1.90585-1.05052z"/></svg>