<svg xmlns="http://www.w3.org/2000/svg" viewBox="0 0 69.276451 72.197754"><path d="M28.041621 71.80859C20.89449 70.54175 13.59787 66.49907 8.93811 61.22433c-.82262-.93119-1.6034-1.69308-1.73507-1.69308-.13167 0-1.07382.36624-2.09368.81385-1.01985.44762-1.88833.77504-1.92994.72761-.13446-.15326 2.11169-13.83333 2.32746-14.17531.11477-.1819.46363-.33073.77524-.33073.42278 0 12.64291 5.55321 13.10991 5.95755.0449.0389-.66947.52017-1.5875 1.06951-.91804.54935-1.72127 1.04095-1.78495 1.09247-.21654.17513 2.2263 2.50787 3.81995 3.64777 2.18045 1.55962 4.96371 2.91169 7.728931 3.75461 2.0793.63382 2.74502.70879 6.29399.70879 3.54983 0 4.21442-.0749 6.29618-.70943 4.79751-1.46234 9.59728-4.61476 12.11641-7.95787.49609-.65837.97592-1.20072 1.06627-1.20522.0904-.005.24901.96332.35259 2.15071.16473 1.88847.28246 2.25302.93986 2.91041.41334.41334.94064.75153 1.17177.75153.23113 0 1.74978-.53442 3.37477-1.18759 1.62499-.65318 2.9929-1.14923 3.03979-1.10234.0469.0469-.40091.7793-.99513 1.62757-5.08227 7.25518-12.93003 12.22905-21.66142 13.7289-3.04476.52302-8.58453.5252-11.52192.005zm27.36712-14.81167c-.32199-.38797-1.97454-14.0829-1.729-14.32845.0553-.0553.88387.37898 1.84132.965l1.74082 1.0655.27156-1.00846c2.19527-8.15264-.26617-17.2336-6.32473-23.3337-3.24005-3.26226-6.41006-5.13384-10.88246-6.42503l-2.14359-.61886 1.89717-1.40643c3.21055-2.38008 3.13561-3.17825-.56126-5.97792-1.43738-1.08854-2.61341-2.01399-2.61341-2.05657 0-.20118 3.83865.45491 6.08542 1.0401 3.26694.8509 8.23039 3.30661 11.14164 5.51242 5.44011 4.12188 9.69798 10.05742 11.88149 16.56298 2.11066 6.28851 2.12763 14.86347.0416 21.0319-.29481.87176-.51506 1.59818-.48944 1.61426.0256.0161.91621.5406 1.97908 1.16559 1.06288.625 1.83679 1.21794 1.7198 1.31764-.34385.29304-12.77501 5.2977-13.15905 5.2977-.19268 0-.50632-.18795-.69697-.41767zM2.27366 49.77533C-2.4685 37.47849.33473 23.61759 9.49309 14.07803c4.88681-5.09021 10.91317-8.40772 17.688631-9.73758l2.31511-.45439V1.94303c0-1.06867.069-1.94303.15344-1.94303.17998 0 9.74817 7.22146 10.64036 8.03066 1.25294 1.13641.89429 1.56048-5.10526 6.03652l-5.55625 4.1453-.0761-2.35936c-.0586-1.81862-.16163-2.35937-.44936-2.35937-.87392 0-4.916061 1.44958-6.704051 2.40419-6.0221 3.2152-10.27415 8.57901-12.27382 15.48296-.52272 1.8047-.60272 2.66483-.58803 6.32223.0177 4.39914-.002 4.28979 1.6115 9.19104.11999.3646-.3215.24135-2.13245-.59531-1.25607-.58031-2.58468-1.05511-2.95246-1.05511-1.24728 0-1.8646.99082-2.23777 3.5917-.18635 1.29879-.42457 2.52758-.52938 2.73066-.12255.23745-.48787-.4017-1.02356-1.79078zm29.071201-.36439c-.005-1.14873-.17332-1.3498-1.67951-2.0113l-1.28668-.56509-.78301.65886c-.95662.80494-1.26087.68003-2.967681-1.21835l-1.22694-1.36465.70198-.92033c.68491-.89797.69147-.94235.26976-1.82668-.23771-.49849-.43221-1.06817-.43221-1.26594 0-.43248-.57458-.68079-1.57532-.68079-.65908 0-.7568-.11574-.9108-1.07879-.0949-.59334-.0956-1.65877-.002-2.36762.1691-1.27474.18226-1.28969 1.20448-1.3686.96359-.0744 1.07682-.1735 1.6736-1.46508l.64008-1.3853-.64754-.76956c-.35615-.42326-.64754-.88308-.64754-1.02182 0-.13875.72161-.94057 1.603591-1.78183l1.60359-1.52957.78403.75115c.73617.70529.83612.72996 1.63755.40415.46944-.19085 1.10965-.4061 1.42267-.47832.43982-.10148.60919-.3983.74533-1.30615l.17617-1.17483 2.29739.0762 2.29739.0762.0812 1.05834c.0777 1.01243.14275 1.0823 1.5 1.61092l1.41878.55259.82301-.6441.82301-.64411.91049.69447c.93667.71442 2.24869 2.27463 2.24869 2.67406 0 .12382-.29964.53789-.66587.92014l-.66586.69502.59972 1.3519c.59489 1.34103 1.00741 1.64154 2.26366 1.64904.59055.003.60372.0612.52917 2.31871l-.0765 2.31511-1.08122.0792c-1.0397.0762-1.10446.1353-1.68625 1.53898l-.60503 1.45975.7235.75517.7235.75517-.70871.92917c-.67682.88737-2.3035 2.28772-2.65746 2.28772-.0922 0-.5466-.28153-1.00984-.62562l-.84222-.62562-1.38906.64311c-1.33131.61638-1.38906.6864-1.38906 1.68395v1.04084h-4.7625l-.004-.8599zm4.83323-8.02146c.97958-.72464 1.7854-2.26723 1.7854-3.41781 0-3.89048-4.99167-5.66198-7.38407-2.62054-1.64874 2.09604-.94072 5.29115 1.40851 6.3562 1.09919.49834 3.31395.33033 4.19016-.31785z"/></svg>