<?xml version="1.0" encoding="UTF-8" standalone="no"?>
<!-- Created with Inkscape (http://www.inkscape.org/) -->

<svg
   xmlns:dc="http://purl.org/dc/elements/1.1/"
   xmlns:cc="http://creativecommons.org/ns#"
   xmlns:rdf="http://www.w3.org/1999/02/22-rdf-syntax-ns#"
   xmlns:svg="http://www.w3.org/2000/svg"
   xmlns="http://www.w3.org/2000/svg"
   xmlns:sodipodi="http://sodipodi.sourceforge.net/DTD/sodipodi-0.dtd"
   xmlns:inkscape="http://www.inkscape.org/namespaces/inkscape"
   width="69.276451mm"
   height="72.197754mm"
   viewBox="0 0 69.276451 72.197754"
   version="1.1"
   id="svg236"
   inkscape:version="0.92.3 (5aff6ba, 2018-11-25)"
   sodipodi:docname="continuous-integration.svg">
  <defs
     id="defs230" />
  <sodipodi:namedview
     id="base"
     pagecolor="#ffffff"
     bordercolor="#666666"
     borderopacity="1.0"
     inkscape:pageopacity="0.0"
     inkscape:pageshadow="2"
     inkscape:zoom="0.35"
     inkscape:cx="116.63042"
     inkscape:cy="153.57966"
     inkscape:document-units="mm"
     inkscape:current-layer="layer1"
     showgrid="false"
     fit-margin-top="0"
     fit-margin-left="0"
     fit-margin-right="0"
     fit-margin-bottom="0"
     inkscape:window-width="1920"
     inkscape:window-height="1056"
     inkscape:window-x="1920"
     inkscape:window-y="24"
     inkscape:window-maximized="1" />
  <metadata
     id="metadata233">
    <rdf:RDF>
      <cc:Work
         rdf:about="">
        <dc:format>image/svg+xml</dc:format>
        <dc:type
           rdf:resource="http://purl.org/dc/dcmitype/StillImage" />
        <dc:title></dc:title>
      </cc:Work>
    </rdf:RDF>
  </metadata>
  <g
     inkscape:label="Layer 1"
     inkscape:groupmode="layer"
     id="layer1"
     transform="translate(-74.974869,-117.2702)">
    <path
       style="fill:#000000;stroke-width:0.26458332"
       d="m 103.01649,189.07879 c -7.147131,-1.26684 -14.443751,-5.30952 -19.103511,-10.58426 -0.82262,-0.93119 -1.6034,-1.69308 -1.73507,-1.69308 -0.13167,0 -1.07382,0.36624 -2.09368,0.81385 -1.01985,0.44762 -1.88833,0.77504 -1.92994,0.72761 -0.13446,-0.15326 2.11169,-13.83333 2.32746,-14.17531 0.11477,-0.1819 0.46363,-0.33073 0.77524,-0.33073 0.42278,0 12.64291,5.55321 13.10991,5.95755 0.0449,0.0389 -0.66947,0.52017 -1.5875,1.06951 -0.91804,0.54935 -1.72127,1.04095 -1.78495,1.09247 -0.21654,0.17513 2.2263,2.50787 3.81995,3.64777 2.18045,1.55962 4.96371,2.91169 7.728931,3.75461 2.0793,0.63382 2.74502,0.70879 6.29399,0.70879 3.54983,0 4.21442,-0.0749 6.29618,-0.70943 4.79751,-1.46234 9.59728,-4.61476 12.11641,-7.95787 0.49609,-0.65837 0.97592,-1.20072 1.06627,-1.20522 0.0904,-0.005 0.24901,0.96332 0.35259,2.15071 0.16473,1.88847 0.28246,2.25302 0.93986,2.91041 0.41334,0.41334 0.94064,0.75153 1.17177,0.75153 0.23113,0 1.74978,-0.53442 3.37477,-1.18759 1.62499,-0.65318 2.9929,-1.14923 3.03979,-1.10234 0.0469,0.0469 -0.40091,0.7793 -0.99513,1.62757 -5.08227,7.25518 -12.93003,12.22905 -21.66142,13.7289 -3.04476,0.52302 -8.58453,0.5252 -11.52192,0.005 z m 27.36712,-14.81167 c -0.32199,-0.38797 -1.97454,-14.0829 -1.729,-14.32845 0.0553,-0.0553 0.88387,0.37898 1.84132,0.965 l 1.74082,1.0655 0.27156,-1.00846 c 2.19527,-8.15264 -0.26617,-17.2336 -6.32473,-23.3337 -3.24005,-3.26226 -6.41006,-5.13384 -10.88246,-6.42503 l -2.14359,-0.61886 1.89717,-1.40643 c 3.21055,-2.38008 3.13561,-3.17825 -0.56126,-5.97792 -1.43738,-1.08854 -2.61341,-2.01399 -2.61341,-2.05657 0,-0.20118 3.83865,0.45491 6.08542,1.0401 3.26694,0.8509 8.23039,3.30661 11.14164,5.51242 5.44011,4.12188 9.69798,10.05742 11.88149,16.56298 2.11066,6.28851 2.12763,14.86347 0.0416,21.0319 -0.29481,0.87176 -0.51506,1.59818 -0.48944,1.61426 0.0256,0.0161 0.91621,0.5406 1.97908,1.16559 1.06288,0.625 1.83679,1.21794 1.7198,1.31764 -0.34385,0.29304 -12.77501,5.2977 -13.15905,5.2977 -0.19268,0 -0.50632,-0.18795 -0.69697,-0.41767 z m -53.135081,-7.22159 c -4.74216,-12.29684 -1.93893,-26.15774 7.21943,-35.6973 4.88681,-5.09021 10.91317,-8.40772 17.688631,-9.73758 l 2.31511,-0.45439 v -1.94303 c 0,-1.06867 0.069,-1.94303 0.15344,-1.94303 0.17998,0 9.74817,7.22146 10.64036,8.03066 1.25294,1.13641 0.89429,1.56048 -5.10526,6.03652 l -5.55625,4.1453 -0.0761,-2.35936 c -0.0586,-1.81862 -0.16163,-2.35937 -0.44936,-2.35937 -0.87392,0 -4.916061,1.44958 -6.704051,2.40419 -6.0221,3.2152 -10.27415,8.57901 -12.27382,15.48296 -0.52272,1.8047 -0.60272,2.66483 -0.58803,6.32223 0.0177,4.39914 -0.002,4.28979 1.6115,9.19104 0.11999,0.3646 -0.3215,0.24135 -2.13245,-0.59531 -1.25607,-0.58031 -2.58468,-1.05511 -2.95246,-1.05511 -1.24728,0 -1.8646,0.99082 -2.23777,3.5917 -0.18635,1.29879 -0.42457,2.52758 -0.52938,2.73066 -0.12255,0.23745 -0.48787,-0.4017 -1.02356,-1.79078 z m 29.071201,-0.36439 c -0.005,-1.14873 -0.17332,-1.3498 -1.67951,-2.0113 l -1.28668,-0.56509 -0.78301,0.65886 c -0.95662,0.80494 -1.26087,0.68003 -2.967681,-1.21835 l -1.22694,-1.36465 0.70198,-0.92033 c 0.68491,-0.89797 0.69147,-0.94235 0.26976,-1.82668 -0.23771,-0.49849 -0.43221,-1.06817 -0.43221,-1.26594 0,-0.43248 -0.57458,-0.68079 -1.57532,-0.68079 -0.65908,0 -0.7568,-0.11574 -0.9108,-1.07879 -0.0949,-0.59334 -0.0956,-1.65877 -0.002,-2.36762 0.1691,-1.27474 0.18226,-1.28969 1.20448,-1.3686 0.96359,-0.0744 1.07682,-0.1735 1.6736,-1.46508 l 0.64008,-1.3853 -0.64754,-0.76956 c -0.35615,-0.42326 -0.64754,-0.88308 -0.64754,-1.02182 0,-0.13875 0.72161,-0.94057 1.603591,-1.78183 l 1.60359,-1.52957 0.78403,0.75115 c 0.73617,0.70529 0.83612,0.72996 1.63755,0.40415 0.46944,-0.19085 1.10965,-0.4061 1.42267,-0.47832 0.43982,-0.10148 0.60919,-0.3983 0.74533,-1.30615 l 0.17617,-1.17483 2.29739,0.0762 2.29739,0.0762 0.0812,1.05834 c 0.0777,1.01243 0.14275,1.0823 1.5,1.61092 l 1.41878,0.55259 0.82301,-0.6441 0.82301,-0.64411 0.91049,0.69447 c 0.93667,0.71442 2.24869,2.27463 2.24869,2.67406 0,0.12382 -0.29964,0.53789 -0.66587,0.92014 l -0.66586,0.69502 0.59972,1.3519 c 0.59489,1.34103 1.00741,1.64154 2.26366,1.64904 0.59055,0.003 0.60372,0.0612 0.52917,2.31871 l -0.0765,2.31511 -1.08122,0.0792 c -1.0397,0.0762 -1.10446,0.1353 -1.68625,1.53898 l -0.60503,1.45975 0.7235,0.75517 0.7235,0.75517 -0.70871,0.92917 c -0.67682,0.88737 -2.3035,2.28772 -2.65746,2.28772 -0.0922,0 -0.5466,-0.28153 -1.00984,-0.62562 l -0.84222,-0.62562 -1.38906,0.64311 c -1.33131,0.61638 -1.38906,0.6864 -1.38906,1.68395 v 1.04084 h -2.38125 -2.38125 l -0.004,-0.8599 z m 4.83323,-8.02146 c 0.97958,-0.72464 1.7854,-2.26723 1.7854,-3.41781 0,-3.89048 -4.99167,-5.66198 -7.38407,-2.62054 -1.64874,2.09604 -0.94072,5.29115 1.40851,6.3562 1.09919,0.49834 3.31395,0.33033 4.19016,-0.31785 z"
       id="path219"
       inkscape:connector-curvature="0" />
  </g>
</svg>
