<svg xmlns="http://www.w3.org/2000/svg" viewBox="0 0 398.20776 439.88074" width="398.20776" height="439.88074"><path d="M334.87209 218.102c-.54.328-18.349-2.66-40.665-4.171-18.225-1.235-39.456-1.188-56.744-.017-14.019.949-32.438-6.098-34.639 2.277-8.238 31.351-25.963 58.655-48.511 79.928-16.963 16.003-36.377 28.138-57.375 35.615-24.999-12.842-36.805-41.404-26.152-66.447 8.449-19.863 18.28-41.74.13-46.745-13.213-3.644-20.468 9.013-25.547 22.545-9.73 25.923-28.219 52.748-33.488 84.521-5.5620004 33.542-.018 69.147 28.992 89.253 67.562 46.826 140.9-29.028 218.225-48.096 28.024-6.911 58.785-5.797 83.475-20.097 18.541-10.739 30.764-28.535 34.233-48.516 5.58-32.137-11.139-64.066-41.934-80.05z" fill="#99425b" stroke="#fff" stroke-width="20"/><path d="M202.82409 216.191c-8.238 31.351-25.963 58.655-48.511 79.928-16.963 16.003-36.377 28.138-57.376 35.615-24.999-12.842-36.805-41.404-26.152-66.447 8.449-19.863 18.28-41.74.13-46.745-13.213-3.644-20.468 9.013-25.547 22.545-9.73 25.923-28.219 52.748-33.488 84.521-5.5620004 33.542-.018 69.147 28.992 89.253 67.562 46.826 140.9-29.028 218.226-48.096 28.024-6.911 58.785-5.797 83.475-20.097 18.541-10.739 30.764-28.535 34.233-48.515 5.58-32.137-11.139-64.066-41.934-80.05" fill="none" stroke="#fff" stroke-width="20"/><path d="M264.84509 91.17l54.321 110.812L384.25909 10h-238.989l64.943 191.641z" fill="#99425b"/><path d="M264.84509 91.17l54.321 110.812L384.25809 10h-238.988l64.943 191.641z" fill="none" stroke="#fff" stroke-width="20"/><circle cx="198.94109" cy="216.58301" r="40.945" fill="#99425b"/><circle cx="198.94109" cy="216.58301" r="40.945" fill="none" stroke="#fff" stroke-width="20"/><circle cx="332.32507" cy="216.58301" r="40.945" fill="#99425b" stroke="#fff" stroke-width="20"/><circle cx="332.32507" cy="216.58301" r="40.945" fill="none" stroke="#fff" stroke-width="20"/><circle cx="65.052086" cy="216.87701" r="40.945" fill="#99425b"/><circle cx="65.052086" cy="216.87701" r="40.945" fill="none" stroke="#fff" stroke-width="20"/></svg>