<svg xmlns="http://www.w3.org/2000/svg" width="4.3323588mm" height="4.5162611mm" viewBox="0 0 4.3323588 4.5162611"><defs><clipPath id="a"><path d="M48.124 548.79h21.407v21.407H48.124z"/></clipPath></defs><g clip-path="url(#a)" transform="matrix(.35278 0 0 -.35278 -18.671331 199.58233)"><path d="M64.8643 557.8672l-1.156.856v.086c0 .085 0 .128.043.214V560.0082c0 .043 0 .128-.043.171l1.156.856c.257.171.385.514.214.771l-.942 1.626c-.17.258-.513.386-.77.215l-1.328-.557h-.042l-.043.043-.043.043-.043.043h-.043s-.043 0-.043.043l-.042.042h-.043c-.043 0-.043.043-.086.043-.042.043-.085.043-.128.085h-.043c-.086.043-.214.129-.3.172-.128.043-.257.129-.385.171h-.043l-.171 1.413c0 .3-.257.557-.556.557h-1.885c-.299 0-.556-.257-.556-.557l-.172-1.413H57.2863c-.043 0-.086-.042-.172-.042h-.042c-.043 0-.086-.043-.129-.043 0 0-.042 0-.042-.043-.043 0-.086-.043-.129-.043-.043 0-.043-.043-.086-.043 0 0-.042 0-.042-.043-.043-.043-.129-.086-.172-.128-.043-.043-.086-.086-.171-.086-.043-.042-.128-.085-.171-.128l-.043-.043s-.043 0-.043-.043l-1.327.557c-.257.171-.642.043-.77-.215l-.943-1.626c-.171-.257-.042-.642.214-.771l1.157-.856v-.086c0-.085 0-.128-.043-.214v-1.113c0-.043 0-.128.043-.171l-1.157-.857c-.256-.171-.385-.513-.214-.77l.943-1.627c.171-.257.513-.386.77-.214l1.327.556h.043l.043-.043c.043 0 .043-.043.086-.043 0 0 .042 0 .042-.043l.043-.042h.043l.042-.043h.043c.086-.043.129-.085.215-.128 0 0 .042 0 .042-.043.086-.043.172-.129.3-.171.128-.086.3-.129.471-.215l.172-1.412c0-.3.256-.557.556-.557h1.884c.299 0 .556.257.556.557l.172 1.412H60.8823c.043 0 .086.043.171.043h.043c.043 0 .086.043.129.043 0 0 .043 0 .043.043.042 0 .085.043.128.043s.043.043.086.043c0 0 .043 0 .043.042.085.043.128.086.171.129h.043c.042.043.085.086.171.128.043.043.128.086.171.128h.043s.043 0 .043.043l1.327-.556c.257-.171.642-.043.771.214l.942 1.627c0 .471-.086.813-.343.985m-5.908-.343c-1.113 0-1.97.899-1.97 1.969 0 1.114.899 1.97 1.97 1.97 1.113 0 1.969-.899 1.969-1.97.043-1.07-.856-1.969-1.969-1.969" fill="#fff"/></g></svg>