<svg xmlns="http://www.w3.org/2000/svg" width="4.4707527mm" height="3.9123054mm" viewBox="0 0 4.4707527 3.9123054"><path d="M2.23555 0C.99659447 0-.00000273.75564998-.00000273 1.67675274c0 .57396943.39264166 1.08761387.98178054 1.38959164v.01481666c0 .257175-.18132778.52916666-.27199167.6649861 0 .01481667-.01481666.02998611-.01481666.04515555 0 .07584722.060325.12100278.12065.12100278h.03033888c.43815-.07549444.84560832-.4681361.95144165-.58913888.13617222.01516945.28680833.0303389.43814999.0303389 1.23860275 0 2.23519995-.75565 2.23519995-1.67675275C4.47074995.75564998 3.47415275 0 2.23555 0M1.22343058 2.0090694c-.19649722 0-.3474861-.15098889-.3474861-.34713333 0-.19685.15098888-.3474861.3474861-.3474861.19614444 0 .3474861.1506361.3474861.3474861 0 .18132778-.15134166.34713333-.3474861.34713333m1.02693609 0c-.19649722 0-.34713333-.15098889-.34713333-.34713333 0-.19685.1506361-.3474861.34713333-.3474861.19649721 0 .3474861.1506361.3474861.3474861 0 .18132778-.15098889.34713333-.3474861.34713333m1.02728886 0c-.19649722 0-.34713332-.15098889-.34713332-.34713333 0-.19685.1506361-.3474861.34713332-.3474861.19649722 0 .34713333.1506361.34713333.3474861 0 .18132778-.15063611.34713333-.34713333.34713333" fill="#fff"/></svg>